<?xml version="1.0" encoding="UTF-8" standalone="no"?>
<!-- Created with Inkscape (http://www.inkscape.org/) -->

<svg
   version="1.1"
   id="svg1"
   width="367"
   height="182"
   viewBox="0 0 367 182"
   sodipodi:docname="logo-dark.svg"
   inkscape:version="1.4.3 (0d15f75, 2025-12-25)"
   xmlns:inkscape="http://www.inkscape.org/namespaces/inkscape"
   xmlns:sodipodi="http://sodipodi.sourceforge.net/DTD/sodipodi-0.dtd"
   xmlns="http://www.w3.org/2000/svg"
   xmlns:svg="http://www.w3.org/2000/svg">
  <defs
     id="defs1" />
  <sodipodi:namedview
     id="namedview1"
     pagecolor="#000000"
     bordercolor="#000000"
     borderopacity="0.25"
     inkscape:showpageshadow="2"
     inkscape:pageopacity="0.0"
     inkscape:pagecheckerboard="0"
     inkscape:deskcolor="#d1d1d1"
     showgrid="false"
     inkscape:zoom="2.6087809"
     inkscape:cx="187.63554"
     inkscape:cy="105.22156"
     inkscape:window-width="1920"
     inkscape:window-height="991"
     inkscape:window-x="-9"
     inkscape:window-y="-9"
     inkscape:window-maximized="1"
     inkscape:current-layer="g1"
     inkscape:export-bgcolor="#00000000" />
  <g
     inkscape:groupmode="layer"
     inkscape:label="Image"
     id="g1">
    <path
       style="fill:#ffffff;fill-opacity:1"
       d="M 178.75,143.27153 175,142.87927 v -10.90591 -10.90591 l -3.52176,2.07789 c -12.83728,7.57418 -26.42682,-1.98271 -28.07772,-19.74574 -2.02745,-21.81463 13.19822,-36.794166 28.86429,-28.397657 3.10038,1.661705 3.73519,1.746682 3.73519,0.5 C 176,74.320065 177.38515,74 182.5,74 h 6.5 v 35 35 l -3.25,-0.1681 c -1.7875,-0.0925 -4.9375,-0.34462 -7,-0.56037 z m -8.72998,-29.78188 c 8.21623,-4.24878 7.2079,-26.809901 -1.33337,-29.833561 C 163.15857,81.699114 158.5321,88.67635 158.5124,99 c -0.0251,13.17181 4.07431,18.33356 11.50762,14.48965 z m 142.9842,28.55516 c -1.60333,-1.03615 -2.00096,0.30116 8.79419,-29.57698 l 3.98598,-11.03218 -6.89219,-18.943604 c -7.84194,-21.55402 -7.77889,-21.231397 -4.31898,-22.099778 3.42395,-0.859357 2.9627,-1.596248 12.798,20.44587 10.37507,23.251792 10.40771,18.004449 -0.26012,41.818752 -9.05278,20.20896 -10.2629,21.87209 -14.10688,19.38792 z M 29,92 V 50 h 7 7 v 42 42 h -7 -7 z m 37.762571,31.43461 c -5.175093,-2.80797 -6.2005,-6.41613 -6.588869,-23.18461 L 59.820502,85 H 56.410251 53 v -5 -5 h 3.5 3.5 v -5.438727 -5.438727 l 4.75,-0.60025 c 2.6125,-0.330137 5.9875,-0.796459 7.5,-1.036272 L 75,62.05 V 68.525 75 h 5.616631 c 5.336648,0 5.586574,0.11216 5.013655,2.25 -0.331637,1.2375 -0.609121,3.4875 -0.616631,5 C 85.000588,84.881513 84.784569,85 80,85 h -5 v 13.877555 c 0,15.940455 0.628107,17.458675 6.330167,15.300835 3.452292,-1.30646 4.168982,-0.81286 7.220799,4.97313 2.581836,4.89494 -14.479568,8.24882 -21.788395,4.28309 z m 34.358759,-0.55359 C 87.095825,115.77855 84.974249,89.131899 97.554802,78.086027 c 7.022338,-6.16569 22.005868,-6.879456 29.783808,-1.418802 13.15139,9.233188 13.05001,35.500555 -0.17287,44.788375 -5.97351,4.19582 -19.14955,4.91695 -26.04441,1.42542 z m 15.13551,-8.95218 c 7.83357,-3.56921 7.73501,-25.699159 -0.13169,-29.569386 -7.87119,-3.872438 -13.94409,7.561776 -11.15408,21.001186 1.65023,7.94912 5.7737,11.07967 11.28577,8.5682 z m 118.77318,9.79185 C 229.07329,120.70655 228,117.13881 228,100.35212 V 85 h -4 -4 v -5 -5 h 4 4 v -5.438727 -5.438727 l 4.75,-0.615869 c 2.6125,-0.338728 5.7625,-0.824874 7,-1.080325 2.15074,-0.443965 2.25,-0.176852 2.25,6.054596 V 75 h 5.5 c 5.33664,0 5.49959,0.08168 5.48635,2.75 -0.0313,6.299812 -0.83114,7.25 -6.10298,7.25 H 242 v 12.889216 c 0,15.539584 1.18282,18.288504 6.99716,16.261624 1.82993,-0.63792 3.40104,-1.04533 3.49134,-0.90535 1.98855,3.0825 4.5115,7.65338 4.5115,8.17357 0,3.00325 -17.05282,4.78975 -21.96998,2.30163 z m 34.97712,-0.31367 c -16.22474,-7.03596 -17.8908,-37.401737 -2.57173,-46.872789 21.32255,-13.182725 44.41874,8.693311 35.68684,33.801539 -4.2248,12.14825 -20.46312,18.55786 -33.11511,13.07125 z m 15.29127,-10.42711 c 6.81515,-5.36079 5.42134,-26.234964 -1.93859,-29.033206 -6.89584,-2.621795 -11.6733,4.502042 -11.10113,16.553296 0.59705,12.57529 6.15546,17.89507 13.03972,12.47991 z M 201,99.5 V 75 h 7 7 V 99.5 124 h -7 -7 z m 0.0726,-36.134859 C 196.50237,57.555066 200.13108,51 207.91759,51 c 5.76438,0 8.48241,2.403233 8.48241,7.5 0,7.458906 -10.63247,10.833803 -15.32742,4.865141 z"
       id="path1" />
  </g>
</svg>
